# xmcd
# 
# Track frame offsets:
#     150
#     17615
#     35025
#     53367
#     70182
#     90217
#     104837
#     126587
#     143527
#     165662
#     177537
# 
# Disc length: 2578
# 
# Revision: 3
# Processed by: cddbd v1.5.2PL0 Copyright (c) Steve Scherf et al.
# Submitted via: fre:ac v1.0.17
# 
DISCID=910a100b
DTITLE=Bonnie Raitt - Nick of Time
DYEAR=1989
DGENRE=Blues
TTITLE0=Nick of Time
TTITLE1=Thing Called Love
TTITLE2=Love Letter
TTITLE3=Cry on My Shoulder
TTITLE4=Real Man
TTITLE5=Nobody's Girl
TTITLE6=Have a Heart
TTITLE7=Too Soon to Tell
TTITLE8=I Will Not Be Denied
TTITLE9=I Ain't Gonna Let You Break My Heart Again
TTITLE10=The Road's My Middle Name
EXTD=
EXTT0=
EXTT1=
EXTT2=
EXTT3=
EXTT4=
EXTT5=
EXTT6=
EXTT7=
EXTT8=
EXTT9=
EXTT10=
PLAYORDER=
